<svg width="183" height="56" viewBox="0 0 183 56" fill="none" xmlns="http://www.w3.org/2000/svg">
<path d="M38.4944 54.0943L36.634 13.6301C36.6001 12.887 37.0605 12.26 37.6415 12.26H41.3614C41.9424 12.26 42.4028 12.887 42.3688 13.6301L40.5085 54.0943C40.4354 55.718 38.5691 55.718 38.4944 54.0943Z" fill="url(#paint0_linear_12_136)"/>
<path d="M39.5019 10.0047C42.0616 10.0047 44.1366 7.83849 44.1366 5.1663C44.1366 2.49412 42.0616 0.327881 39.5019 0.327881C36.9422 0.327881 34.8672 2.49412 34.8672 5.1663C34.8672 7.83849 36.9422 10.0047 39.5019 10.0047Z" fill="url(#paint1_radial_12_136)"/>
<path d="M42.4751 13.8098H36.5288C35.9188 13.8098 35.4244 13.2937 35.4244 12.657C35.4244 12.0203 35.9188 11.5042 36.5288 11.5042H42.4751C43.085 11.5042 43.5794 12.0203 43.5794 12.657C43.5794 13.2937 43.085 13.8098 42.4751 13.8098Z" fill="#00868A"/>
<path d="M78.0946 24.6094L50.5689 13.3771C50.3115 13.2716 50.0176 13.3283 49.818 13.5279C47.1311 16.2131 43.1216 17.0325 40.1059 17.2321C39.9046 17.2454 39.7033 17.2525 39.502 17.2525V26.0194C41.4354 26.0194 43.3696 26.6269 45.0287 27.8409C46.3122 28.7801 47.5558 29.7449 48.6508 30.6211C51.2171 32.6732 54.5572 33.3489 57.6731 32.4515C58.2618 32.2821 58.3884 31.4698 57.8821 31.1141L49.7144 25.6346C48.9711 25.1122 49.6388 23.9266 50.4373 24.3514L61.0158 30.9811C61.173 31.0645 61.3539 31.0849 61.5238 31.037L67.0921 29.4869C67.7267 29.3104 67.8159 28.4094 67.2297 28.1008L53.4427 21.8532C52.6349 21.4284 53.1734 20.155 54.0187 20.4911L71.2792 27.9855C71.4457 28.052 71.63 28.0502 71.7957 27.9819L78.0946 25.9982C78.6977 25.7481 78.6977 24.8577 78.0946 24.6094Z" fill="url(#paint2_linear_12_136)"/>
<path d="M38.8979 17.2321C35.8823 17.0316 31.8728 16.2131 29.1859 13.5279C28.9862 13.3283 28.6923 13.2716 28.4349 13.3771L0.910216 24.6094C0.307088 24.8568 0.307088 25.7481 0.909366 25.9964L7.20823 27.9802C7.37388 28.0485 7.55822 28.0502 7.72471 27.9837L24.9852 20.4893C25.8304 20.1532 26.3682 21.4267 25.5612 21.8515L11.7742 28.099C11.188 28.4076 11.2772 29.3086 11.9118 29.4851L17.4801 31.0352C17.65 31.0822 17.8318 31.0627 17.9881 30.9794L28.5666 24.3496C29.3651 23.9248 30.0337 25.1105 29.2895 25.6328L21.1218 31.1124C20.6155 31.468 20.7421 32.2803 21.3308 32.4497C24.4475 33.3471 27.7868 32.6714 30.3531 30.6193C31.4489 29.7432 32.6917 28.7783 33.9752 27.8392C35.6342 26.6251 37.5685 26.0177 39.5019 26.0177V17.2507C39.3006 17.2516 39.0993 17.2454 38.8979 17.2321Z" fill="url(#paint3_linear_12_136)"/>
<path d="M37.5184 32.8658C36.29 32.7319 35.1245 32.5988 33.9854 32.3461C31.9008 31.8832 30.3258 31.0239 29.6633 29.989C28.6957 28.477 29.783 26.5287 31.3563 25.3864C31.7988 25.0645 31.9084 24.4296 31.6001 23.9667C31.2917 23.5046 30.6835 23.3902 30.2401 23.7122C27.4937 25.7066 26.5678 28.8228 28.0382 31.1223C29.264 33.0387 31.7275 33.9308 33.5785 34.3414C33.677 34.3636 33.7764 34.3831 33.875 34.4035C34.9725 33.8297 36.2552 33.5814 37.5413 33.3846L37.5184 32.8658Z" fill="url(#paint4_linear_12_136)"/>
<path d="M40.9884 43.684C41.9101 43.9704 42.5192 44.3659 42.7146 44.8315C42.853 45.1614 42.6865 45.5746 42.3 45.8602C41.9373 46.128 41.4013 46.277 40.8687 46.2832L40.7752 48.3246C40.799 48.3246 40.8228 48.3255 40.8466 48.3255C41.7869 48.3255 42.7231 48.0462 43.429 47.5256C44.5749 46.6796 45.0175 45.2359 44.5044 44.0139C44.2963 43.5181 43.9633 43.0845 43.5071 42.7156C42.7698 42.9284 41.9398 43.0871 41.0114 43.1918L40.9884 43.684Z" fill="url(#paint5_linear_12_136)"/>
<path d="M46.2221 35.1511C45.8866 34.8523 45.5187 34.6075 45.128 34.4036C43.9328 34.6492 42.7112 34.7831 41.5279 34.9126C41.4829 34.9179 41.4362 34.9223 41.3911 34.9277L41.3682 35.4323C42.8047 35.6584 44.1103 35.951 44.9538 36.7031C45.4559 37.1509 45.7464 37.7495 45.7489 38.3445C45.7515 38.8456 45.5493 39.2952 45.1645 39.6464C44.3541 40.3842 42.9916 40.8817 41.1066 41.1273C40.8373 41.1628 40.5578 41.1921 40.2673 41.2169C40.0039 41.2391 39.7491 41.2675 39.5028 41.2994C38.9294 41.3739 38.4018 41.4723 37.9202 41.5965C36.9042 41.859 36.0955 42.2323 35.4983 42.7156C35.0422 43.0845 34.7092 43.5173 34.501 44.0139C33.9888 45.2359 34.4314 46.6796 35.5765 47.5257C36.2815 48.0462 37.2185 48.3256 38.1589 48.3256C38.1827 48.3256 38.2065 48.3247 38.2302 48.3247L38.1368 46.2832C37.6042 46.2779 37.0682 46.128 36.7054 45.8602C36.3189 45.5747 36.1533 45.1614 36.2917 44.8315C36.4871 44.366 37.0962 43.9713 38.0179 43.684C38.4486 43.5501 38.9472 43.4401 39.5045 43.3568C39.7975 43.3133 40.105 43.277 40.4287 43.2495C40.6283 43.2326 40.822 43.2122 41.0131 43.1909C41.9416 43.0863 42.7715 42.9276 43.5089 42.7147C44.7415 42.3591 45.7167 41.8519 46.4515 41.1823C47.2653 40.441 47.7112 39.4291 47.7053 38.333C47.6968 37.1438 47.1574 35.9839 46.2221 35.1511Z" fill="url(#paint6_linear_12_136)"/>
<path d="M48.7637 23.7122C48.3211 23.3902 47.712 23.5046 47.4037 23.9667C47.0953 24.4287 47.2049 25.0645 47.6475 25.3864C49.2207 26.5295 50.3072 28.477 49.3405 29.989C48.6787 31.0239 47.103 31.8832 45.0184 32.3461C43.8801 32.5988 42.7146 32.731 41.4854 32.8658C41.4319 32.872 41.3784 32.8773 41.3248 32.8835C40.7268 32.9482 40.1135 33.0156 39.5019 33.0972C39.292 33.1256 39.0831 33.1549 38.8741 33.1868C38.6549 33.2205 38.4341 33.2524 38.2132 33.2843C37.9898 33.3172 37.7664 33.35 37.5421 33.3837C36.256 33.5805 34.9725 33.8297 33.8758 34.4026C33.485 34.6066 33.1172 34.8513 32.7817 35.1502C31.8472 35.9838 31.307 37.1428 31.301 38.3321C31.2951 39.4281 31.7411 40.44 32.5548 41.1814C33.2896 41.8509 34.264 42.3582 35.4974 42.7138C36.0946 42.2305 36.9033 41.8571 37.9193 41.5946L37.8981 41.1255C36.0131 40.8798 34.6505 40.3824 33.8401 39.6445C33.4553 39.2934 33.2531 38.8437 33.2557 38.3427C33.2591 37.7468 33.5487 37.1491 34.0508 36.7012C34.8952 35.9492 36.2 35.6566 37.6364 35.4304C37.915 35.387 38.1979 35.3453 38.4833 35.3036C38.7085 35.2708 38.9336 35.238 39.1578 35.2034C39.2717 35.1857 39.3872 35.1706 39.5019 35.1546C40.1271 35.0668 40.765 34.9941 41.3902 34.9258C41.4361 34.9205 41.482 34.9161 41.527 34.9108C42.7112 34.7822 43.9319 34.6474 45.1271 34.4017C45.2256 34.3813 45.325 34.3618 45.4236 34.3396C47.2746 33.9291 49.738 33.036 50.9638 31.1205C52.4351 28.8228 51.51 25.7066 48.7637 23.7122Z" fill="url(#paint7_linear_12_136)"/>
<path d="M119.316 14.1562L119.478 14.309V15.2426L119.334 15.3763C118.018 15.4145 117.202 15.4851 116.886 15.5863C116.569 15.6875 116.345 15.8555 116.213 16.0904C116.082 16.3252 116.007 16.7854 115.989 17.4708C115.971 18.1562 115.938 20.0942 115.89 23.2808V32.0636C115.89 33.3333 115.908 34.7691 115.944 36.3691C115.98 37.9691 116.053 38.9008 116.169 39.1605C116.282 39.4201 116.488 39.6111 116.787 39.7314C117.085 39.8516 117.935 39.9318 119.334 39.97L119.478 40.1037V41.0373L119.316 41.1901C117.367 41.0755 115.669 41.0182 114.222 41.0182C113.24 41.0182 111.572 41.0755 109.218 41.1901L109.056 41.0373V40.1228L109.2 39.97C110.516 39.9318 111.332 39.8631 111.648 39.76C111.964 39.6588 112.189 39.4908 112.32 39.2559C112.451 39.0211 112.529 38.5552 112.554 37.8564C112.577 37.1576 112.608 35.2273 112.644 32.0655V18.0818L106.455 31.8364C104.9 35.2789 103.543 38.517 102.384 41.5528H101.685C101.014 39.9146 100.464 38.6068 100.035 37.6273L91.4608 18.7099V32.0273C91.4608 33.2722 91.4752 34.7042 91.5057 36.3232C91.5363 37.9423 91.61 38.8798 91.7304 39.1337C91.849 39.3877 92.0593 39.5786 92.3577 39.7046C92.6561 39.8325 93.5063 39.907 94.9047 39.9337L95.0485 40.0865V41.001L94.8867 41.1729L93.7382 41.1156C92.5536 41.0526 91.5381 41.0201 90.6897 41.0201C90.3068 41.0201 88.8779 41.0698 86.4028 41.1729L86.259 41.0201V40.1056L86.4028 39.9337C87.7185 39.9089 88.5309 39.8459 88.8419 39.7428C89.1529 39.6416 89.3775 39.4698 89.5142 39.2292C89.6508 38.9886 89.7298 38.538 89.7478 37.8774C89.7658 37.2168 89.7928 35.2674 89.8287 32.0292V23.3037C89.8287 22.1486 89.8143 20.7414 89.7838 19.0842C89.7532 17.4269 89.6813 16.4684 89.5681 16.2068C89.4548 15.9472 89.2481 15.7524 88.9498 15.6264C88.6514 15.5004 87.8012 15.424 86.4028 15.3973L86.259 15.2446V14.3281L86.4207 14.1562C87.2458 14.2193 88.3584 14.2517 89.7568 14.2517C91.0725 14.2517 92.2193 14.2212 93.2007 14.1562C94.2055 16.6212 95.1671 18.8493 96.0892 20.8445L102.887 35.6664L109.022 22.0818C110.684 18.4121 111.803 15.7696 112.376 14.1562C113.524 14.2193 114.653 14.2517 115.766 14.2517C116.769 14.2517 117.952 14.2212 119.316 14.1562Z" fill="#333333"/>
<path d="M121.629 14.2333L121.773 14.0996C125.875 14.176 128.499 14.2142 129.648 14.2142C133.57 14.2142 137.06 14.176 140.121 14.0996L140.211 14.2333C139.913 15.4533 139.692 17.3645 139.548 19.9688L139.44 20.1215H138.561L138.399 19.9688C138.412 19.8542 138.417 19.7531 138.417 19.6633C138.417 18.5846 138.34 17.5554 138.184 16.576C137.431 16.2208 136.386 15.9879 135.054 15.881C133.721 15.7741 132.719 15.7187 132.051 15.7187C131.105 15.7187 129.899 15.7893 128.427 15.9287L128.355 18.976L128.301 22.4624L128.247 26.3306C129.538 26.407 130.728 26.4452 131.817 26.4452C132.917 26.4452 133.837 26.407 134.58 26.3306C135.32 26.2542 135.755 26.1759 135.879 26.0919C136.005 26.0098 136.1 25.8514 136.167 25.6165C136.232 25.3817 136.289 24.9654 136.338 24.3678L136.41 23.186L136.553 23.0332H137.378L137.522 23.186C137.499 24.5702 137.468 25.9621 137.432 27.3578L137.522 31.6442L137.378 31.7969H136.553L136.41 31.6442L136.284 30.5005C136.176 29.6108 136.099 29.0819 136.05 28.9101C136.002 28.7382 135.892 28.5893 135.718 28.4633C135.543 28.3373 135.099 28.2342 134.382 28.1578C133.665 28.0814 132.678 28.0432 131.424 28.0432C130.73 28.0432 129.671 28.0757 128.249 28.1387C128.19 29.206 128.159 30.9836 128.159 33.4733C128.159 36.1406 128.19 38.1034 128.249 39.3597H131.549C134.456 39.3597 136.273 39.3215 137.001 39.2451C137.731 39.1687 138.425 38.9855 139.082 38.6933C139.19 38.4012 139.366 37.7253 139.611 36.6637C139.855 35.6041 139.997 34.9396 140.033 34.6723L140.213 34.5387H141.074L141.218 34.6723C141.11 35.2184 141.006 36.1711 140.903 37.5306C140.801 38.89 140.75 40.0528 140.75 41.0169L140.625 41.1697C138.34 41.0933 135.351 41.0551 131.657 41.0551L126.779 41.0169C125.643 41.0169 124.458 41.0666 123.227 41.1697L123.083 41.0169V40.3888L123.227 40.1979C123.932 39.816 124.336 39.5792 124.439 39.4838C124.539 39.3883 124.624 38.2771 124.69 36.1501C124.755 34.0232 124.789 32.4003 124.789 31.2833V24.2934L124.771 19.9688C124.771 19.0294 124.759 18.2638 124.735 17.6738C124.712 17.0838 124.669 16.6619 124.609 16.406C124.55 16.1521 124.48 15.9745 124.403 15.8734C124.325 15.7722 124.2 15.6862 124.025 15.6156C123.851 15.545 123.556 15.4858 123.137 15.4342L121.775 15.3197L121.631 15.186V14.2333H121.629Z" fill="#333333"/>
<path d="M143.296 14.2324L143.439 14.0987C145.508 14.1999 146.919 14.2515 147.672 14.2515L156.066 14.0605C158.457 14.0605 160.418 14.2992 161.95 14.7746C163.481 15.25 164.84 16.0768 166.03 17.251C167.22 18.4252 168.122 19.7923 168.738 21.3464C169.353 22.9025 169.662 24.5636 169.662 26.3278C169.662 28.0424 169.382 29.7378 168.819 31.4142C168.257 33.0906 167.459 34.5932 166.425 35.9201C165.392 37.2471 164.213 38.3182 162.891 39.1297C161.57 39.943 160.246 40.4853 158.919 40.7583C157.593 41.0313 156.235 41.1669 154.848 41.1669C153.915 41.1669 152.157 41.1287 149.574 41.0523C148.726 41.0275 148.163 41.0142 147.888 41.0142C147.063 41.0142 146.064 41.0638 144.894 41.1669L144.75 41.0142V40.386L144.894 40.1951C145.598 39.8132 146.003 39.5765 146.105 39.481C146.206 39.3855 146.29 38.2743 146.357 36.1473C146.421 34.0204 146.456 32.3975 146.456 31.2805V24.2925L146.438 19.9679C146.438 19.0286 146.425 18.2629 146.402 17.6729C146.378 17.083 146.335 16.661 146.276 16.4052C146.216 16.1512 146.146 15.9737 146.069 15.8725C145.992 15.7713 145.866 15.6854 145.692 15.6147C145.519 15.5441 145.222 15.4849 144.804 15.4333L143.441 15.3188L143.297 15.1851V14.2324H143.296ZM149.932 39.0953C151.152 39.3492 152.556 39.4772 154.147 39.4772C156.933 39.4772 159.16 38.9827 160.828 37.9917C162.496 37.0008 163.742 35.5345 164.567 33.5908C165.392 31.6471 165.805 29.4572 165.805 27.019C165.805 23.4238 164.903 20.6362 163.096 18.6543C161.292 16.6725 158.445 15.6815 154.558 15.6815C152.957 15.6815 151.413 15.8095 149.932 16.0634C149.837 18.1465 149.788 20.4968 149.788 23.1125V29.0944L149.824 34.6963C149.824 35.7865 149.86 37.2547 149.932 39.0953Z" fill="#333333"/>
<path d="M172.244 14.0996L174.485 14.176C175.955 14.2275 176.919 14.2524 177.374 14.2524C177.78 14.2524 179.496 14.2027 182.521 14.0996L182.665 14.2333V15.186L182.521 15.3197C181.696 15.3445 181.06 15.3827 180.611 15.4342C180.161 15.4858 179.836 15.5812 179.633 15.7206C179.43 15.86 179.295 16.1865 179.228 16.702C179.162 17.2156 179.13 17.9316 179.13 18.8461L179.094 23.228V32.0489L179.112 35.7644C179.124 37.2002 179.158 38.1262 179.219 38.5463C179.279 38.9663 179.365 39.2451 179.48 39.3845C179.593 39.5238 179.813 39.6422 180.134 39.7377C180.458 39.8331 181.252 39.9057 182.52 39.9573L182.663 40.0718V41.0246L182.52 41.1773C182.46 41.1773 181.407 41.1391 179.363 41.0627C178.515 41.0379 177.85 41.0246 177.372 41.0246C177.001 41.0246 175.29 41.0742 172.242 41.1773L172.098 41.0246V40.0718L172.242 39.9573C173.354 39.9076 174.095 39.8427 174.465 39.7663C174.835 39.69 175.084 39.5926 175.209 39.4704C175.335 39.3501 175.436 39.0923 175.515 38.699C175.592 38.3057 175.637 37.4293 175.65 36.0699L175.668 32.0508V23.2299L175.632 19.5144C175.619 18.0671 175.587 17.1335 175.533 16.7134C175.479 16.2934 175.395 16.0146 175.281 15.8753C175.168 15.7359 174.949 15.6213 174.627 15.5316C174.303 15.4438 173.509 15.3731 172.242 15.3216L172.098 15.1879V14.2333L172.244 14.0996Z" fill="#333333"/>
<defs>
<linearGradient id="paint0_linear_12_136" x1="39.5021" y1="55.3124" x2="39.5021" y2="12.2607" gradientUnits="userSpaceOnUse">
<stop stop-color="#4FBFA5"/>
<stop offset="1" stop-color="#006A65"/>
</linearGradient>
<radialGradient id="paint1_radial_12_136" cx="0" cy="0" r="1" gradientUnits="userSpaceOnUse" gradientTransform="translate(38.3554 4.50102) scale(4.63451 4.8382)">
<stop stop-color="#4FBFA5"/>
<stop offset="1" stop-color="#00868A"/>
</radialGradient>
<linearGradient id="paint2_linear_12_136" x1="39.5022" y1="23.0817" x2="78.547" y2="23.0817" gradientUnits="userSpaceOnUse">
<stop stop-color="#4FBFA5"/>
<stop offset="1" stop-color="#00868A"/>
</linearGradient>
<linearGradient id="paint3_linear_12_136" x1="0.457445" y1="23.0817" x2="39.5022" y2="23.0817" gradientUnits="userSpaceOnUse">
<stop stop-color="#4FBFA5"/>
<stop offset="1" stop-color="#00868A"/>
</linearGradient>
<linearGradient id="paint4_linear_12_136" x1="27.3449" y1="28.9661" x2="37.5424" y2="28.9661" gradientUnits="userSpaceOnUse">
<stop stop-color="#4FBFA5"/>
<stop offset="1" stop-color="#00868A"/>
</linearGradient>
<linearGradient id="paint5_linear_12_136" x1="40.775" y1="45.5204" x2="44.7154" y2="45.5204" gradientUnits="userSpaceOnUse">
<stop stop-color="#00868A"/>
<stop offset="1" stop-color="#4FBFA5"/>
</linearGradient>
<linearGradient id="paint6_linear_12_136" x1="34.2889" y1="41.3643" x2="47.7027" y2="41.3643" gradientUnits="userSpaceOnUse">
<stop stop-color="#00868A"/>
<stop offset="1" stop-color="#4FBFA5"/>
</linearGradient>
<linearGradient id="paint7_linear_12_136" x1="31.3016" y1="33.1222" x2="51.6594" y2="33.1222" gradientUnits="userSpaceOnUse">
<stop stop-color="#4FBFA5"/>
<stop offset="1" stop-color="#00868A"/>
</linearGradient>
</defs>
</svg>
